<?xml version="1.0" encoding="UTF-8"?>
<svg width="128" height="128" viewBox="0 0 128 128" xmlns="http://www.w3.org/2000/svg">
  <defs>
    <linearGradient id="terraformGradient" x1="0%" y1="0%" x2="100%" y2="100%">
      <stop offset="0%" style="stop-color:#623CE4;stop-opacity:1" />
      <stop offset="100%" style="stop-color:#7C3AED;stop-opacity:1" />
    </linearGradient>
    <linearGradient id="crossplaneGradient" x1="0%" y1="0%" x2="100%" y2="100%">
      <stop offset="0%" style="stop-color:#FF6B35;stop-opacity:1" />
      <stop offset="100%" style="stop-color:#FF8E53;stop-opacity:1" />
    </linearGradient>
    <filter id="shadow" x="-50%" y="-50%" width="200%" height="200%">
      <feDropShadow dx="2" dy="2" stdDeviation="3" flood-color="#000000" flood-opacity="0.3"/>
    </filter>
  </defs>
  
  <!-- Background circle -->
  <circle cx="64" cy="64" r="58" fill="url(#terraformGradient)" filter="url(#shadow)"/>
  
  <!-- Terraform "T" symbol -->
  <g transform="translate(64, 64)">
    <!-- Main T shape -->
    <path d="M-20,-25 L20,-25 L20,-15 L5,-15 L5,25 L-5,25 L-5,-15 L-20,-15 Z" 
          fill="white" opacity="0.9"/>
    
    <!-- Crossplane integration symbol (overlapping circles) -->
    <g transform="translate(15, 15)">
      <circle cx="0" cy="0" r="8" fill="url(#crossplaneGradient)" opacity="0.8"/>
      <circle cx="6" cy="6" r="6" fill="white" opacity="0.9"/>
      <circle cx="3" cy="3" r="3" fill="url(#crossplaneGradient)"/>
    </g>
    
    <!-- Kubernetes/Cloud symbol -->
    <g transform="translate(-18, 18)">
      <path d="M0,-6 L5,0 L0,6 L-5,0 Z" fill="white" opacity="0.7"/>
      <circle cx="0" cy="0" r="2" fill="url(#terraformGradient)"/>
    </g>
  </g>
  
  <!-- Border -->
  <circle cx="64" cy="64" r="58" fill="none" stroke="rgba(255,255,255,0.2)" stroke-width="2"/>
  
  <!-- Text indicator -->
  <text x="64" y="110" font-family="Arial, sans-serif" font-size="10" font-weight="bold" 
        text-anchor="middle" fill="#4A5568">TF + XP</text>
</svg>
